<html>
<head>
<meta charset="UTF-8">
<meta name="viewport" content="width=device-width, initial-scale=1.0"/>

<style>
.comment
{
    padding-left: 20px;
    margin-top: 4px;
    margin-right: 4px;
    margin-bottom: 4px;
    border: 2px #000 solid;
}
.submission
{
    border: 4px #00f solid;
    padding-left: 20px;
}
.hidden
{
    display: none;
}
</style>
</head>
<body><div class="submission" id="t3_7bmwi7">
    <p class="userinfo">
        <a href="https://www.reddit.com/u/MrWifeSteal007">MrWifeSteal007</a>
        <span class="score"> | 7 points</span>
        <span class="timestamp"> | Nov 08 2017 17:37:41</span>
    </p>
    <strong>[TV]The Flash 2014 S04E05 720p-[60FPS] HDTV x265-N0M3rcY [734MB]</strong>
    <p><p><a href="http://links.snahp.it/996flash">Link</a></p>
<p><strong>Other 60 FPS uploads</strong></p>
<p>Guardians of The Galaxy 2014 - <a href="https://www.reddit.com/r/megalinks/comments/69w0gl/movie_guardians_of_the_galaxy_2014_1080p_bluray/">Link</a></p>
<p>Batman Begins 2005 - <a href="https://www.reddit.com/r/megalinks/comments/6aim5u/movie_batman_begins_2005_1080p_bluray_x265_663gb/">Link</a></p>
<p>Dark knight Rises 2008 -<a href="https://www.reddit.com/r/megalinks/comments/6ajkuk/movie_the_dark_knight_rises_1080p_bluray_x265_888/">Link</a></p>
<p>The Dark Kight Rises 2012 - <a href="https://www.reddit.com/r/megalinks/comments/6ajkuk/movie_the_dark_knight_rises_1080p_bluray_x265_888/">Link</a></p>
<p><strong>General</strong></p>
<p>Source                                :<a href="https://www.reddit.com/r/megalinks/comments/7bjalu/tv_the_flash_2014_s04e05_720p_hdtv_x264killers/">Link</a></p>
<p>Complete name                            : The.Flash.2014.S04E05.720p-60FPS.HDTV.x265-N0M3rcY.mkv</p>
<p>Format                                   : Matroska</p>
<p>Format version                           : Version 4 / Version 2</p>
<p>File size                                : 734 MiB</p>
<p>Duration                                 : 41 min 23 s</p>
<p>Overall bit rate                         : 2 480 kb/s</p>
<p>Writing application                      : Lavf57.83.100</p>
<p>Writing library                          : Lavf57.83.100</p>
<p>ErrorDetectionType                       : Per level 1</p>
<p><strong>Video</strong></p>
<p>ID                                       : 1</p>
<p>Format                                   : HEVC</p>
<p>Format/Info                              : High Efficiency Video Coding</p>
<p>Format profile                           : Main@L4@Main</p>
<p>Codec ID                                 : V_MPEGH/ISO/HEVC</p>
<p>Duration                                 : 41 min 23 s</p>
<p>Bit rate                                 : 2 046 kb/s</p>
<p>Width                                    : 1 276 pixels</p>
<p>Height                                   : 718 pixels</p>
<p>Display aspect ratio                     : 16:9</p>
<p>Frame rate mode                          : Constant</p>
<p><strong>Frame rate                               : 59.940 (59940/1000) FPS</strong></p>
<p>Standard                                 : Component</p>
<p>Color space                              : YUV</p>
<p>Chroma subsampling                       : 4:2:0</p>
<p>Bit depth                                : 8 bits</p>
<p>Bits/(Pixel*Frame)                       : 0.037</p>
<p>Stream size                              : 606 MiB (83%)</p>
<p>Default                                  : Yes</p>
<p>Forced                                   : No</p>
<p>Color range                              : Limited</p>
<p>Matrix coefficients                      : BT.709</p>
<p><strong>Audio</strong></p>
<p>ID                                       : 2</p>
<p>Format                                   : AC-3</p>
<p>Format/Info                              : Audio Coding 3</p>
<p>Codec ID                                 : A_AC3</p>
<p>Duration                                 : 41 min 23 s</p>
<p>Bit rate mode                            : Constant</p>
<p>Bit rate                                 : 384 kb/s</p>
<p>Channel(s)                               : 6 channels</p>
<p>Channel positions                        : Front: L C R, Side: L R, LFE</p>
<p>Sampling rate                            : 48.0 kHz</p>
<p>Frame rate                               : 31.250 FPS (1536 SPF)</p>
<p>Bit depth                                : 16 bits</p>
<p>Compression mode                         : Lossy</p>
<p>Stream size                              : 114 MiB (15%)</p>
<p>Service kind                             : Complete Main</p>
<p>Default                                  : Yes</p>
<p>Forced                                   : No</p></p>
    <p class="toolbar">
        <a href="https://www.reddit.com/r/megalinks/comments/7bmwi7">permalink</a>
    </p>
</div>
<div class="comment" id="t1_dpj69ab">
    <p class="userinfo">
        <a
        class="toggle_hide_button"
        href="javascript:void(0)"
        onclick="toggle_collapse(this.parentElement.parentElement)">[-]
        </a>
        <a href="https://www.reddit.com/u/SubZorro">SubZorro</a>
        <span class="score"> | 1 points</span>
        <span class="timestamp"> | Nov 08 2017 17:40:09</span>
    </p>
    <div class="collapsible">
        <h5>Subtitles for this episode:</h5>
<hr>
<blockquote>
<ul>
<li>
<p><strong>The Flash S04E05</strong> - <code>1 CD</code> - <a href="http://dl.opensubtitles.org/en/download/vrf-86d9b4fe/sub/7153004">Download Subtitle</a></p>
</li>
<li>
<p><strong>The.Flash.2014.S04E05.HDTV.x264-KILLERS</strong> - <code>1 CD</code> - <a href="http://dl.opensubtitles.org/en/download/vrf-9b69c7bf/sub/7153248">Download Subtitle</a></p>
</li>
<li>
<p><strong>The Flash (2014) - 04x05 - Girls Night Out.KILLERS.English.HI.C.orig</strong> - <code>1 CD</code> - <a href="http://dl.opensubtitles.org/en/download/vrf-40504d68/sub/7152995">Download Subtitle</a></p>
</li>
<li>
<p><strong>The.Flash.2014.S04E05.HDTV.x264-KILLERS</strong> - <code>1 CD</code> - <a href="http://dl.opensubtitles.org/en/download/vrf-40a918d7/sub/7152999">Download Subtitle</a></p>
</li>
<li>
<p><strong>The.Flash.2014.S04E05.HDTV.x264-KILLERS (CHI)</strong> - <code>1 CD</code> - <a href="http://dl.opensubtitles.org/en/download/vrf-a38be0c6/sub/7153124">Download Subtitle</a></p>
</li>
</ul>
</blockquote>
<hr>
<p>^This ^list ^of ^subtitles ^are ^taken ^from <a href="http://www.opensubtitles.org">^opensubtitles.org</a> ^| ^For ^feedback ^or ^suggestions ^contact <a href="http://www.reddit.com/message/compose/?to=indigo6alpha">^/u/indigo6alpha</a></p>
        <p class="toolbar">
            <a href="https://www.reddit.com/r/megalinks/comments/7bmwi7/_/dpj69ab">permalink</a>
        </p>
        
    </div>
</div>

<div class="comment" id="t1_dpmeufo">
    <p class="userinfo">
        <a
        class="toggle_hide_button"
        href="javascript:void(0)"
        onclick="toggle_collapse(this.parentElement.parentElement)">[-]
        </a>
        <a href="https://www.reddit.com/u/AlkanSurpassesLiszt">AlkanSurpassesLiszt</a>
        <span class="score"> | 1 points</span>
        <span class="timestamp"> | Nov 10 2017 15:01:16</span>
    </p>
    <div class="collapsible">
        <p>60fps? Has this gone through an interpolation process or something?</p>
        <p class="toolbar">
            <a href="https://www.reddit.com/r/megalinks/comments/7bmwi7/_/dpmeufo">permalink</a>
        </p>
        <div class="comment" id="t1_dpmhk8s">
    <p class="userinfo">
        <a
        class="toggle_hide_button"
        href="javascript:void(0)"
        onclick="toggle_collapse(this.parentElement.parentElement)">[-]
        </a>
        <a href="https://www.reddit.com/u/MrWifeSteal007">MrWifeSteal007</a>
        <span class="score"> | 1 points</span>
        <span class="timestamp"> | Nov 10 2017 15:52:21</span>
    </p>
    <div class="collapsible">
        <p>Yes.</p>
        <p class="toolbar">
            <a href="https://www.reddit.com/r/megalinks/comments/7bmwi7/_/dpmhk8s">permalink</a>
        </p>
        
    </div>
</div>
    </div>
</div>
</body>

<script>
function toggle_collapse(comment_div)
{
    var button = comment_div.getElementsByClassName("toggle_hide_button")[0];
    var collapsible = comment_div.getElementsByClassName("collapsible")[0];
    if (collapsible.classList.contains("hidden"))
    {
        collapsible.classList.remove("hidden");
        button.innerText = "[-]";
    }
    else
    {
        collapsible.classList.add("hidden");
        button.innerText = "[+]";
    }
}
</script>
</html>
